<svg width="35" height="34" viewBox="0 0 35 34" fill="none" xmlns="http://www.w3.org/2000/svg">
<path fill-rule="evenodd" clip-rule="evenodd" d="M17.4833 0.00537109C8.28325 0.00537109 0.833252 7.47204 0.833252 16.672C0.833252 25.872 8.28325 33.3387 17.4833 33.3387C26.6999 33.3387 34.1666 25.872 34.1666 16.672C34.1666 7.47204 26.6999 0.00537109 17.4833 0.00537109ZM11.6666 10.0054C10.2859 10.0054 9.16658 11.1247 9.16658 12.5054C9.16658 13.8861 10.2859 15.0054 11.6666 15.0054C13.0473 15.0054 14.1666 13.8861 14.1666 12.5054C14.1666 11.1247 13.0473 10.0054 11.6666 10.0054ZM23.3333 10.0054C21.9525 10.0054 20.8333 11.1247 20.8333 12.5054C20.8333 13.8861 21.9525 15.0054 23.3333 15.0054C24.714 15.0054 25.8333 13.8861 25.8333 12.5054C25.8333 11.1247 24.714 10.0054 23.3333 10.0054ZM11.7499 20.0054C12.9166 21.9887 15.0332 23.3387 17.4999 23.3387C19.9666 23.3387 22.0999 21.9887 23.2499 20.0054H26.0333C24.6999 23.422 21.3832 25.8387 17.4999 25.8387C13.6166 25.8387 10.2999 23.422 8.96658 20.0054H11.7499ZM4.16659 16.672C4.16659 24.0387 10.1333 30.0054 17.4999 30.0054C24.8666 30.0054 30.8333 24.0387 30.8333 16.672C30.8333 9.30537 24.8666 3.3387 17.4999 3.3387C10.1333 3.3387 4.16659 9.30537 4.16659 16.672Z" fill="#F2F2F2"/>
</svg>
