<svg width="32" height="31" viewBox="0 0 32 31" fill="none" xmlns="http://www.w3.org/2000/svg">
<path fill-rule="evenodd" clip-rule="evenodd" d="M30.167 4.00557V7.80557C31.1503 8.38891 31.8337 9.43891 31.8337 10.6722V20.6722C31.8337 21.9056 31.1503 22.9556 30.167 23.5389V27.3389C30.167 29.1722 28.667 30.6722 26.8337 30.6722H3.50032C1.65033 30.6722 0.166992 29.1722 0.166992 27.3389V4.00557C0.166992 2.17224 1.65033 0.672241 3.50032 0.672241H26.8337C28.667 0.672241 30.167 2.17224 30.167 4.00557ZM16.8337 20.6722H28.5003V10.6722H16.8337V20.6722ZM3.50033 27.3389V4.00557H26.8337V7.33891H16.8337C15.0003 7.33891 13.5003 8.83891 13.5003 10.6722V20.6722C13.5003 22.5056 15.0003 24.0056 16.8337 24.0056H26.8337V27.3389H3.50033ZM19.3337 15.6722C19.3337 14.2915 20.4529 13.1722 21.8337 13.1722C23.2144 13.1722 24.3337 14.2915 24.3337 15.6722C24.3337 17.053 23.2144 18.1722 21.8337 18.1722C20.4529 18.1722 19.3337 17.053 19.3337 15.6722Z" fill="#F2F2F2"/>
</svg>
