<svg width="25" height="29" viewBox="0 0 25 29" fill="none" xmlns="http://www.w3.org/2000/svg">
<path d="M20.876 19.1314C21.6671 19.4133 22.4988 18.8268 22.4988 17.9869C22.4988 17.5941 22.3089 17.2256 21.989 16.9976L18.3796 14.4249C15.7949 12.5827 14.2604 9.60452 14.2604 6.43051V5.02978C14.2604 4.05503 13.5704 3.26819 12.7157 3.26819C11.861 3.26819 11.171 4.05503 11.171 5.02978V6.43051C11.171 9.60452 9.63648 12.5827 7.05181 14.4249L3.44239 16.9976C3.12252 17.2256 2.93262 17.5941 2.93262 17.9869C2.93262 18.8268 3.76433 19.4133 4.55542 19.1314L7.05181 18.2417C9.05986 17.5261 11.171 19.0149 11.171 21.1467V21.8778C11.171 22.7378 10.7948 23.5547 10.1412 24.1137L9.44685 24.7076C9.23397 24.8897 9.11141 25.1558 9.11141 25.4359C9.11141 26.0873 9.74731 26.5489 10.3667 26.3471L12.0263 25.8063C12.4743 25.6603 12.9571 25.6603 13.4051 25.8063L15.0648 26.3471C15.6841 26.5489 16.32 26.0873 16.32 25.4359C16.32 25.1558 16.1975 24.8897 15.9846 24.7076L15.2902 24.1137C14.6367 23.5547 14.2604 22.7378 14.2604 21.8778V21.1467C14.2604 19.0149 16.3716 17.5261 18.3796 18.2417L20.876 19.1314Z" fill="white"/>
</svg>
