<svg width="92" height="207" viewBox="0 0 92 207" fill="none" xmlns="http://www.w3.org/2000/svg">
<g filter="url(#filter0_bd_1240_1190)">
<path d="M4 45C4 20.1472 24.1472 0 49 0H88V199H49C24.1472 199 4 178.853 4 154V45Z" fill="white" fill-opacity="0.1" shape-rendering="crispEdges"/>
<path d="M50.4 156.406L53 156.406L53 167.246L39 167.246L39 156.666L41.6 156.666L41.6 164.026L44.64 164.026L44.64 157.526L47.16 157.526L47.16 164.026L50.4 164.026L50.4 156.406ZM42.08 147.508C42.08 146.175 42.48 145.102 43.28 144.288C44.08 143.462 45.2667 143.048 46.84 143.048L53 143.048L53 146.168L47.32 146.168C46.4667 146.168 45.8333 146.355 45.42 146.728C44.9933 147.102 44.78 147.642 44.78 148.348C44.78 149.135 45.0267 149.762 45.52 150.228C46 150.695 46.72 150.928 47.68 150.928L53 150.928L53 154.048L42.24 154.048L42.24 151.068L43.5 151.068C43.0467 150.655 42.7 150.142 42.46 149.528C42.2067 148.915 42.08 148.242 42.08 147.508ZM42.24 129.183L56.88 129.183L56.88 132.303L51.86 132.303C52.7267 133.076 53.16 134.15 53.16 135.523C53.16 136.536 52.9333 137.456 52.48 138.283C52.0267 139.096 51.38 139.736 50.54 140.203C49.7 140.67 48.7267 140.903 47.62 140.903C46.5133 140.903 45.54 140.67 44.7 140.203C43.86 139.736 43.2133 139.096 42.76 138.283C42.3067 137.456 42.08 136.536 42.08 135.523C42.08 134.056 42.5467 132.936 43.48 132.163L42.24 132.163L42.24 129.183ZM50.6 134.983C50.6 134.196 50.3333 133.543 49.8 133.023C49.2533 132.503 48.5267 132.243 47.62 132.243C46.7133 132.243 45.9933 132.503 45.46 133.023C44.9133 133.543 44.64 134.196 44.64 134.983C44.64 135.783 44.9133 136.443 45.46 136.963C45.9933 137.483 46.7133 137.743 47.62 137.743C48.5267 137.743 49.2533 137.483 49.8 136.963C50.3333 136.443 50.6 135.783 50.6 134.983ZM42.24 115.454L53 115.454L53 118.414L51.72 118.414C52.1867 118.828 52.5467 119.321 52.8 119.894C53.04 120.468 53.16 121.088 53.16 121.754C53.16 123.168 52.7533 124.288 51.94 125.114C51.1267 125.941 49.92 126.354 48.32 126.354L42.24 126.354L42.24 123.234L47.86 123.234C49.5933 123.234 50.46 122.508 50.46 121.054C50.46 120.308 50.22 119.708 49.74 119.254C49.2467 118.801 48.52 118.574 47.56 118.574L42.24 118.574L42.24 115.454ZM42.24 112.564L42.24 109.444L53 109.444L53 112.564L42.24 112.564ZM40.74 111.004C40.74 111.577 40.5733 112.044 40.24 112.404C39.9067 112.764 39.4933 112.944 39 112.944C38.5067 112.944 38.0933 112.764 37.76 112.404C37.4267 112.044 37.26 111.577 37.26 111.004C37.26 110.431 37.42 109.964 37.74 109.604C38.06 109.244 38.46 109.064 38.94 109.064C39.46 109.064 39.8933 109.244 40.24 109.604C40.5733 109.964 40.74 110.431 40.74 111.004ZM43.66 103.568C43.14 103.195 42.7467 102.695 42.48 102.068C42.2133 101.428 42.08 100.695 42.08 99.8683L44.96 99.8683C44.9333 100.215 44.92 100.448 44.92 100.568C44.92 101.462 45.1733 102.162 45.68 102.668C46.1733 103.175 46.92 103.428 47.92 103.428L53 103.428L53 106.548L42.24 106.548L42.24 103.568L43.66 103.568ZM47.66 87.5708C47.7 87.5708 47.98 87.5908 48.5 87.6308L48.5 95.7708C49.1667 95.6241 49.6933 95.2774 50.08 94.7308C50.4667 94.1841 50.66 93.5041 50.66 92.6908C50.66 92.1308 50.58 91.6374 50.42 91.2108C50.2467 90.7708 49.98 90.3641 49.62 89.9908L51.42 88.3308C52.58 89.3441 53.16 90.8241 53.16 92.7708C53.16 93.9841 52.9267 95.0574 52.46 95.9908C51.98 96.9241 51.32 97.6441 50.48 98.1508C49.64 98.6574 48.6867 98.9108 47.62 98.9108C46.5667 98.9108 45.62 98.6641 44.78 98.1708C43.9267 97.6641 43.2667 96.9774 42.8 96.1108C42.32 95.2308 42.08 94.2508 42.08 93.1708C42.08 92.1174 42.3067 91.1641 42.76 90.3108C43.2133 89.4574 43.8667 88.7908 44.72 88.3108C45.56 87.8174 46.54 87.5708 47.66 87.5708ZM44.44 93.1508C44.44 93.8574 44.64 94.4508 45.04 94.9308C45.44 95.4108 45.9867 95.7041 46.68 95.8108L46.68 90.5108C46 90.6174 45.46 90.9108 45.06 91.3908C44.6467 91.8708 44.44 92.4574 44.44 93.1508ZM42.08 73.2895C42.08 71.9562 42.48 70.8829 43.28 70.0695C44.08 69.2429 45.2667 68.8295 46.84 68.8295L53 68.8295L53 71.9495L47.32 71.9495C46.4667 71.9495 45.8333 72.1362 45.42 72.5095C44.9933 72.8829 44.78 73.4229 44.78 74.1295C44.78 74.9162 45.0267 75.5429 45.52 76.0095C46 76.4762 46.72 76.7095 47.68 76.7095L53 76.7095L53 79.8295L42.24 79.8295L42.24 76.8495L43.5 76.8495C43.0467 76.4362 42.7 75.9229 42.46 75.3095C42.2067 74.6962 42.08 74.0229 42.08 73.2895ZM53.16 60.7642C53.16 61.8976 52.9267 62.9176 52.46 63.8242C51.98 64.7176 51.32 65.4176 50.48 65.9242C49.64 66.4309 48.6867 66.6842 47.62 66.6842C46.5533 66.6842 45.6 66.4309 44.76 65.9242C43.92 65.4176 43.2667 64.7176 42.8 63.8242C42.32 62.9176 42.08 61.8976 42.08 60.7642C42.08 59.6309 42.32 58.6176 42.8 57.7242C43.2667 56.8309 43.92 56.1309 44.76 55.6242C45.6 55.1176 46.5533 54.8642 47.62 54.8642C48.6867 54.8642 49.64 55.1176 50.48 55.6242C51.32 56.1309 51.98 56.8309 52.46 57.7242C52.9267 58.6176 53.16 59.6309 53.16 60.7642ZM50.6 60.7642C50.6 59.9642 50.3333 59.3109 49.8 58.8042C49.2533 58.2842 48.5267 58.0242 47.62 58.0242C46.7133 58.0242 45.9933 58.2842 45.46 58.8042C44.9133 59.3109 44.64 59.9642 44.64 60.7642C44.64 61.5642 44.9133 62.2242 45.46 62.7442C45.9933 63.2642 46.7133 63.5242 47.62 63.5242C48.5267 63.5242 49.2533 63.2642 49.8 62.7442C50.3333 62.2242 50.6 61.5642 50.6 60.7642ZM42.24 35.7917L53 39.6917L53 42.6917L46.32 45.1117L53 47.6117L53 50.6117L42.24 54.4917L42.24 51.5517L49.52 49.0117L42.24 46.3717L42.24 43.7317L49.52 41.1717L42.24 38.5517L42.24 35.7917ZM39 34.7412L39 31.0212L48.14 31.6412L48.14 34.1212L39 34.7412ZM53.16 32.8812C53.16 33.4279 52.9867 33.8879 52.64 34.2612C52.28 34.6212 51.8467 34.8012 51.34 34.8012C50.8333 34.8012 50.4133 34.6212 50.08 34.2612C49.7333 33.9012 49.56 33.4412 49.56 32.8812C49.56 32.3212 49.7333 31.8612 50.08 31.5012C50.4133 31.1412 50.8333 30.9612 51.34 30.9612C51.8467 30.9612 52.28 31.1479 52.64 31.5212C52.9867 31.8812 53.16 32.3346 53.16 32.8812Z" fill="white"/>
<path d="M49 0.5H87.5V198.5H49C24.4233 198.5 4.5 178.577 4.5 154V45C4.5 20.4233 24.4233 0.5 49 0.5Z" stroke="url(#paint0_linear_1240_1190)" shape-rendering="crispEdges"/>
</g>
<defs>
<filter id="filter0_bd_1240_1190" x="-1" y="-5" width="94" height="212" filterUnits="userSpaceOnUse" color-interpolation-filters="sRGB">
<feFlood flood-opacity="0" result="BackgroundImageFix"/>
<feGaussianBlur in="BackgroundImage" stdDeviation="2.5"/>
<feComposite in2="SourceAlpha" operator="in" result="effect1_backgroundBlur_1240_1190"/>
<feColorMatrix in="SourceAlpha" type="matrix" values="0 0 0 0 0 0 0 0 0 0 0 0 0 0 0 0 0 0 127 0" result="hardAlpha"/>
<feOffset dy="4"/>
<feGaussianBlur stdDeviation="2"/>
<feComposite in2="hardAlpha" operator="out"/>
<feColorMatrix type="matrix" values="0 0 0 0 0 0 0 0 0 0 0 0 0 0 0 0 0 0 0.25 0"/>
<feBlend mode="normal" in2="effect1_backgroundBlur_1240_1190" result="effect2_dropShadow_1240_1190"/>
<feBlend mode="normal" in="SourceGraphic" in2="effect2_dropShadow_1240_1190" result="shape"/>
</filter>
<linearGradient id="paint0_linear_1240_1190" x1="29.2287" y1="9.05243" x2="92.8333" y2="11.634" gradientUnits="userSpaceOnUse">
<stop stop-color="white"/>
<stop offset="1" stop-color="white" stop-opacity="0"/>
</linearGradient>
</defs>
</svg>
