<svg width="38" height="41" viewBox="0 0 38 41" fill="none" xmlns="http://www.w3.org/2000/svg">
<path fill-rule="evenodd" clip-rule="evenodd" d="M31.4854 4.16659H33.527C35.7729 4.16659 37.6104 6.00409 37.6104 8.24992V36.8333C37.6104 39.0791 35.7729 40.9166 33.527 40.9166H4.94369C2.69785 40.9166 0.860352 39.0791 0.860352 36.8333V8.24992C0.860352 6.00409 2.69785 4.16659 4.94369 4.16659H6.98535V0.083252H11.0687V4.16659H27.402V0.083252H31.4854V4.16659ZM4.94385 36.8332H33.5272V16.4166H4.94385V36.8332ZM4.94385 12.3333V8.24992H33.5272V12.3333H4.94385ZM28.4024 21.582L16.2954 33.6891L9.82327 27.217L11.9874 25.0528L16.2954 29.3608L26.2383 19.4178L28.4024 21.582Z" fill="#F2F2F2"/>
</svg>
