<svg width="39" height="42" viewBox="0 0 39 42" fill="none" xmlns="http://www.w3.org/2000/svg">
<path fill-rule="evenodd" clip-rule="evenodd" d="M34.1104 4.16667H31.9854V0H27.7354V4.16667H10.7354V0H6.48535V4.16667H4.36035C2.02285 4.16667 0.110352 6.04167 0.110352 8.33333V37.5C0.110352 39.7917 2.02285 41.6667 4.36035 41.6667H34.1104C36.4479 41.6667 38.3604 39.7917 38.3604 37.5V8.33333C38.3604 6.04167 36.4479 4.16667 34.1104 4.16667ZM34.1104 37.5H4.36035V16.6667H34.1104V37.5ZM4.36035 8.33333V12.5H34.1104V8.33333H4.36035ZM6.48535 20.8333H31.9854V25H6.48535V20.8333ZM31.9854 28.6458H6.48535V32.8125H31.9854V28.6458Z" fill="#F2F2F2"/>
</svg>
