<svg width="39" height="32" viewBox="0 0 39 32" fill="none" xmlns="http://www.w3.org/2000/svg">
<path fill-rule="evenodd" clip-rule="evenodd" d="M38.9022 12.1667V4.50008C38.9022 2.39175 37.1772 0.666748 35.0689 0.666748H4.40218C2.29385 0.666748 0.588014 2.39175 0.588014 4.50008V12.1667C2.69635 12.1667 4.40218 13.8917 4.40218 16.0001C4.40218 18.1084 2.69635 19.8334 0.568848 19.8334V27.5001C0.568848 29.6084 2.29385 31.3334 4.40218 31.3334H35.0689C37.1772 31.3334 38.9022 29.6084 38.9022 27.5001V19.8334C36.7939 19.8334 35.0689 18.1084 35.0689 16.0001C35.0689 13.8917 36.7939 12.1667 38.9022 12.1667ZM35.069 9.36841C32.7882 10.6909 31.2357 13.1826 31.2357 16.0001C31.2357 18.8176 32.7882 21.3092 35.069 22.6317V27.5001H4.40234V22.6317C6.68318 21.3092 8.23568 18.8176 8.23568 16.0001C8.23568 13.1634 6.70234 10.6909 4.42151 9.36841L4.40234 4.50008H35.069V9.36841ZM19.7354 20.0634L14.1196 23.6667L15.8062 17.2076L10.6504 12.9909L17.3012 12.5884L19.7354 6.41675L22.1504 12.6076L28.8012 13.0101L23.6454 17.2267L25.3512 23.6667L19.7354 20.0634Z" fill="#F2F2F2"/>
</svg>
