<svg width="24" height="34" viewBox="0 0 24 34" fill="none" xmlns="http://www.w3.org/2000/svg">
<path d="M12.2369 0.00585938C5.86453 0.00585938 0.686035 5.3606 0.686035 11.9495C0.686035 14.179 1.28296 16.3488 2.41873 18.22L11.4539 33.5088C11.608 33.7676 11.839 33.9269 12.1086 33.9667C12.4742 34.0264 12.8787 33.8672 13.0904 33.489L22.1514 18.0607C23.2294 16.2294 23.7877 14.0994 23.7877 11.9495C23.7877 5.3606 18.6092 0.00585938 12.2369 0.00585938ZM12.2369 17.9213C9.00277 17.9213 6.46145 15.2141 6.46145 11.9495C6.46145 8.66494 9.06033 5.97769 12.2369 5.97769C15.4134 5.97769 18.0123 8.66494 18.0123 11.9495C18.0123 15.1942 15.5095 17.9213 12.2369 17.9213Z" fill="#D93337"/>
</svg>
