<svg width="25" height="29" viewBox="0 0 25 29" fill="none" xmlns="http://www.w3.org/2000/svg">
<path d="M14.8694 8.35749C13.5722 8.35749 12.5207 7.3059 12.5207 6.0087C12.5207 4.7115 11.4691 3.65991 10.1719 3.65991H7.37165C4.52794 3.65991 2.22266 5.9652 2.22266 8.80891V14.501C2.22266 20.1884 6.83323 24.799 12.5207 24.799H14.5979C19.1381 24.799 22.8186 21.1185 22.8186 16.5782V13.5065C22.8186 10.6628 20.5134 8.35749 17.6696 8.35749H14.8694ZM6.34185 21.4204C6.34185 21.9892 5.8808 22.4502 5.31205 22.4502C4.74331 22.4502 4.28226 21.9892 4.28226 21.4204V21.1312C4.28226 20.5625 4.74331 20.1014 5.31205 20.1014C5.8808 20.1014 6.34185 20.5625 6.34185 21.1312V21.4204ZM6.34185 16.7228C6.34185 17.2916 5.8808 17.7526 5.31205 17.7526C4.74331 17.7526 4.28226 17.2916 4.28226 16.7228V16.4337C4.28226 15.8649 4.74331 15.4039 5.31205 15.4039C5.8808 15.4039 6.34185 15.8649 6.34185 16.4337V16.7228ZM6.34185 12.0253C6.34185 12.594 5.8808 13.0551 5.31205 13.0551C4.74331 13.0551 4.28226 12.594 4.28226 12.0253V11.7361C4.28226 11.1673 4.74331 10.7063 5.31205 10.7063C5.8808 10.7063 6.34185 11.1673 6.34185 11.7361V12.0253ZM6.34185 7.32769C6.34185 7.89643 5.8808 8.35749 5.31205 8.35749C4.74331 8.35749 4.28226 7.89643 4.28226 7.32769V7.0385C4.28226 6.46976 4.74331 6.0087 5.31205 6.0087C5.8808 6.0087 6.34185 6.46976 6.34185 7.0385V7.32769ZM10.4611 21.4204C10.4611 21.9892 10 22.4502 9.43125 22.4502C8.86251 22.4502 8.40145 21.9892 8.40145 21.4204V21.1312C8.40145 20.5625 8.86251 20.1014 9.43125 20.1014C10 20.1014 10.4611 20.5625 10.4611 21.1312V21.4204ZM10.4611 16.7228C10.4611 17.2916 10 17.7526 9.43125 17.7526C8.86251 17.7526 8.40145 17.2916 8.40145 16.7228V16.4337C8.40145 15.8649 8.86251 15.4039 9.43125 15.4039C10 15.4039 10.4611 15.8649 10.4611 16.4337V16.7228ZM10.4611 12.0253C10.4611 12.594 10 13.0551 9.43125 13.0551C8.86251 13.0551 8.40145 12.594 8.40145 12.0253V11.7361C8.40145 11.1673 8.86251 10.7063 9.43125 10.7063C10 10.7063 10.4611 11.1673 10.4611 11.7361V12.0253ZM10.4611 7.32769C10.4611 7.89643 10 8.35749 9.43125 8.35749C8.86251 8.35749 8.40145 7.89643 8.40145 7.32769V7.0385C8.40145 6.46976 8.86251 6.0087 9.43125 6.0087C10 6.0087 10.4611 6.46976 10.4611 7.0385V7.32769ZM20.759 18.331C20.759 20.606 18.9148 22.4502 16.6398 22.4502H13.695C13.0464 22.4502 12.5207 21.9244 12.5207 21.2758V21.1312C12.5207 20.5625 12.9817 20.1014 13.5505 20.1014C14.1192 20.1014 14.5803 19.6404 14.5803 19.0716V18.7824C14.5803 18.2137 14.1192 17.7526 13.5505 17.7526C12.9817 17.7526 12.5207 17.2916 12.5207 16.7228V16.4337C12.5207 15.8649 12.9817 15.4039 13.5505 15.4039C14.1192 15.4039 14.5803 14.9428 14.5803 14.3741V14.0849C14.5803 13.5161 14.1192 13.0551 13.5505 13.0551C12.9817 13.0551 12.5207 12.594 12.5207 12.0253V11.8807C12.5207 11.2321 13.0464 10.7063 13.695 10.7063H16.6399C18.9148 10.7063 20.759 12.5505 20.759 14.8255V18.331ZM18.6994 14.0849C18.6994 13.5161 18.2384 13.0551 17.6696 13.0551C17.1009 13.0551 16.6398 13.5161 16.6398 14.0849V14.3741C16.6398 14.9428 17.1009 15.4039 17.6696 15.4039C18.2384 15.4039 18.6994 14.9428 18.6994 14.3741V14.0849ZM18.6994 18.7824C18.6994 18.2137 18.2384 17.7526 17.6696 17.7526C17.1009 17.7526 16.6398 18.2137 16.6398 18.7824V19.0716C16.6398 19.6404 17.1009 20.1014 17.6696 20.1014C18.2384 20.1014 18.6994 19.6404 18.6994 19.0716V18.7824Z" fill="white"/>
</svg>
