<svg width="41" height="41" viewBox="0 0 41 41" fill="none" xmlns="http://www.w3.org/2000/svg">
<g id="icon/action/account_circle_24px">
<path id="icon/action/account_circle_24px_2" fill-rule="evenodd" clip-rule="evenodd" d="M20.5004 4.00537C11.1418 4.00537 3.54639 11.472 3.54639 20.672C3.54639 29.872 11.1418 37.3387 20.5004 37.3387C29.859 37.3387 37.4544 29.872 37.4544 20.672C37.4544 11.472 29.859 4.00537 20.5004 4.00537ZM12.1421 31.1387C12.8711 29.6387 17.3131 28.172 20.5004 28.172C23.6878 28.172 28.1467 29.6387 28.8587 31.1387C26.553 32.9387 23.6539 34.0054 20.5004 34.0054C17.347 34.0054 14.4478 32.9387 12.1421 31.1387ZM20.5004 24.8387C22.9757 24.8387 28.8587 25.822 31.2832 28.722C33.0125 26.4887 34.0636 23.7054 34.0636 20.672C34.0636 13.322 27.9771 7.3387 20.5004 7.3387C13.0237 7.3387 6.93719 13.322 6.93719 20.672C6.93719 23.7054 7.98834 26.4887 9.71765 28.722C12.1421 25.822 18.0251 24.8387 20.5004 24.8387ZM20.5004 10.672C17.2113 10.672 14.5665 13.272 14.5665 16.5054C14.5665 19.7387 17.2113 22.3387 20.5004 22.3387C23.7895 22.3387 26.4343 19.7387 26.4343 16.5054C26.4343 13.272 23.7895 10.672 20.5004 10.672ZM17.9573 16.5054C17.9573 17.8887 19.0932 19.0054 20.5004 19.0054C21.9076 19.0054 23.0435 17.8887 23.0435 16.5054C23.0435 15.122 21.9076 14.0054 20.5004 14.0054C19.0932 14.0054 17.9573 15.122 17.9573 16.5054Z" fill="#F2F2F2"/>
</g>
</svg>
