<svg width="42" height="41" viewBox="0 0 42 41" fill="none" xmlns="http://www.w3.org/2000/svg">
<g id="icon/device/access_time_24px">
<path id="icon/device/access_time_24px_2" fill-rule="evenodd" clip-rule="evenodd" d="M20.9832 3.50537C11.6246 3.50537 4.04614 10.972 4.04614 20.172C4.04614 29.372 11.6246 36.8387 20.9832 36.8387C30.3588 36.8387 37.9542 29.372 37.9542 20.172C37.9542 10.972 30.3588 3.50537 20.9832 3.50537ZM21 33.5054C13.5063 33.5054 7.43677 27.5387 7.43677 20.172C7.43677 12.8054 13.5063 6.83871 21 6.83871C28.4937 6.83871 34.5632 12.8054 34.5632 20.172C34.5632 27.5387 28.4937 33.5054 21 33.5054ZM19.3049 11.8387H21.848V20.5887L29.4773 25.0387L28.2058 27.0887L19.3049 21.8387V11.8387Z" fill="#F2F2F2"/>
</g>
</svg>
