<svg width="235" height="183" viewBox="0 0 235 183" fill="none" xmlns="http://www.w3.org/2000/svg">
<g filter="url(#filter0_bd_250_359)">
<path d="M76.3792 174.223C62.4592 174.223 50.0592 170.783 39.1792 163.903C28.2992 157.023 19.7392 147.103 13.4992 134.143C7.41917 121.023 4.37917 105.423 4.37917 87.3433C4.37917 69.2633 7.41917 53.7433 13.4992 40.7833C19.7392 27.6633 28.2992 17.6633 39.1792 10.7833C50.0592 3.90326 62.4592 0.463259 76.3792 0.463259C90.2992 0.463259 102.699 3.90326 113.579 10.7833C124.459 17.6633 132.939 27.6633 139.019 40.7833C145.259 53.7433 148.379 69.2633 148.379 87.3433C148.379 105.423 145.259 121.023 139.019 134.143C132.939 147.103 124.459 157.023 113.579 163.903C102.699 170.783 90.2992 174.223 76.3792 174.223ZM76.3792 141.343C86.6192 141.343 94.6192 136.943 100.379 128.143C106.299 119.343 109.259 105.743 109.259 87.3433C109.259 68.9433 106.299 55.3433 100.379 46.5433C94.6192 37.7433 86.6192 33.3433 76.3792 33.3433C66.2992 33.3433 58.2992 37.7433 52.3792 46.5433C46.6192 55.3433 43.7392 68.9433 43.7392 87.3433C43.7392 105.743 46.6192 119.343 52.3792 128.143C58.2992 136.943 66.2992 141.343 76.3792 141.343ZM230.664 3.34325V171.343H191.784V34.5432H158.184V3.34325H230.664Z" fill="white" fill-opacity="0.1" shape-rendering="crispEdges"/>
<path d="M39.1792 163.903L39.4464 163.481L39.1792 163.903ZM13.4992 134.143L13.0455 134.354L13.0487 134.36L13.4992 134.143ZM13.4992 40.7833L13.0476 40.5685L13.0465 40.5709L13.4992 40.7833ZM39.1792 10.7833L39.4464 11.2059L39.1792 10.7833ZM113.579 10.7833L113.312 11.2059L113.579 10.7833ZM139.019 40.7833L138.565 40.9935L138.569 41.0002L139.019 40.7833ZM139.019 134.143L138.568 133.929L138.567 133.931L139.019 134.143ZM113.579 163.903L113.312 163.481L113.579 163.903ZM100.379 128.143L99.9643 127.864L99.9608 127.869L100.379 128.143ZM100.379 46.5433L99.9608 46.8171L99.9643 46.8223L100.379 46.5433ZM52.3792 46.5433L51.9643 46.2641L51.9608 46.2694L52.3792 46.5433ZM52.3792 128.143L51.9608 128.417L51.9643 128.422L52.3792 128.143ZM76.3792 173.723C62.5458 173.723 50.2399 170.306 39.4464 163.481L38.9119 164.326C49.8784 171.261 62.3726 174.723 76.3792 174.723V173.723ZM39.4464 163.481C28.6546 156.656 20.154 146.812 13.9497 133.926L13.0487 134.36C19.3244 147.394 27.9437 157.39 38.9119 164.326L39.4464 163.481ZM13.9528 133.933C7.91 120.893 4.87917 105.368 4.87917 87.3433H3.87917C3.87917 105.478 6.92834 121.153 13.0455 134.353L13.9528 133.933ZM4.87917 87.3433C4.87917 69.3179 7.91008 53.8741 13.9518 40.9956L13.0465 40.5709C6.92825 53.6124 3.87917 69.2086 3.87917 87.3433H4.87917ZM13.9507 40.998C20.1555 27.952 28.6562 18.0291 39.4464 11.2059L38.9119 10.3607C27.9422 17.2974 19.3228 27.3745 13.0476 40.5685L13.9507 40.998ZM39.4464 11.2059C50.2399 4.38054 62.5458 0.963257 76.3792 0.963257V-0.0367432C62.3726 -0.0367432 49.8784 3.42598 38.9119 10.3607L39.4464 11.2059ZM76.3792 0.963257C90.2126 0.963257 102.518 4.38054 113.312 11.2059L113.846 10.3607C102.88 3.42598 90.3858 -0.0367432 76.3792 -0.0367432V0.963257ZM113.312 11.2059C124.101 18.0283 132.521 27.9496 138.566 40.9935L139.473 40.573C133.358 27.3769 124.817 17.2982 113.846 10.3607L113.312 11.2059ZM138.569 41.0002C144.769 53.8774 147.879 69.3196 147.879 87.3433H148.879C148.879 69.2069 145.75 53.6091 139.47 40.5663L138.569 41.0002ZM147.879 87.3433C147.879 105.367 144.769 120.89 138.568 133.929L139.471 134.358C145.749 121.157 148.879 105.48 148.879 87.3433H147.879ZM138.567 133.931C132.522 146.815 124.102 156.657 113.312 163.481L113.846 164.326C124.816 157.389 133.356 147.392 139.472 134.356L138.567 133.931ZM113.312 163.481C102.518 170.306 90.2126 173.723 76.3792 173.723V174.723C90.3858 174.723 102.88 171.261 113.846 164.326L113.312 163.481ZM76.3792 141.843C86.7933 141.843 94.9482 137.354 100.798 128.417L99.9608 127.869C94.2902 136.533 86.4451 140.843 76.3792 140.843V141.843ZM100.794 128.422C106.797 119.499 109.759 105.778 109.759 87.3433H108.759C108.759 105.708 105.801 119.188 99.9643 127.864L100.794 128.422ZM109.759 87.3433C109.759 68.9084 106.797 55.1876 100.794 46.2642L99.9643 46.8223C105.801 55.4989 108.759 68.9781 108.759 87.3433H109.759ZM100.798 46.2694C94.9482 37.3329 86.7933 32.8432 76.3792 32.8432V33.8432C86.4451 33.8432 94.2902 38.1536 99.9608 46.8171L100.798 46.2694ZM76.3792 32.8432C66.1226 32.8432 57.9714 37.3347 51.9643 46.2642L52.794 46.8223C58.6269 38.1518 66.4757 33.8432 76.3792 33.8432V32.8432ZM51.9608 46.2694C46.1209 55.1916 43.2392 68.91 43.2392 87.3433H44.2392C44.2392 68.9765 47.1175 55.495 52.7975 46.8171L51.9608 46.2694ZM43.2392 87.3433C43.2392 105.777 46.1209 119.495 51.9608 128.417L52.7975 127.869C47.1175 119.192 44.2392 105.71 44.2392 87.3433H43.2392ZM51.9643 128.422C57.9714 137.352 66.1226 141.843 76.3792 141.843V140.843C66.4757 140.843 58.6269 136.535 52.794 127.864L51.9643 128.422ZM230.664 3.34325H231.164V2.84325H230.664V3.34325ZM230.664 171.343V171.843H231.164V171.343H230.664ZM191.784 171.343H191.284V171.843H191.784V171.343ZM191.784 34.5433H192.284V34.0433H191.784V34.5433ZM158.184 34.5433H157.684V35.0433H158.184V34.5433ZM158.184 3.34325V2.84325H157.684V3.34325H158.184ZM230.164 3.34325V171.343H231.164V3.34325H230.164ZM230.664 170.843H191.784V171.843H230.664V170.843ZM192.284 171.343V34.5433H191.284V171.343H192.284ZM191.784 34.0433H158.184V35.0433H191.784V34.0433ZM158.684 34.5433V3.34325H157.684V34.5433H158.684ZM158.184 3.84325H230.664V2.84325H158.184V3.84325Z" fill="url(#paint0_linear_250_359)"/>
</g>
<defs>
<filter id="filter0_bd_250_359" x="0.37915" y="-3.53674" width="234.284" height="185.76" filterUnits="userSpaceOnUse" color-interpolation-filters="sRGB">
<feFlood flood-opacity="0" result="BackgroundImageFix"/>
<feGaussianBlur in="BackgroundImage" stdDeviation="2"/>
<feComposite in2="SourceAlpha" operator="in" result="effect1_backgroundBlur_250_359"/>
<feColorMatrix in="SourceAlpha" type="matrix" values="0 0 0 0 0 0 0 0 0 0 0 0 0 0 0 0 0 0 127 0" result="hardAlpha"/>
<feOffset dy="4"/>
<feGaussianBlur stdDeviation="2"/>
<feComposite in2="hardAlpha" operator="out"/>
<feColorMatrix type="matrix" values="0 0 0 0 0 0 0 0 0 0 0 0 0 0 0 0 0 0 0.25 0"/>
<feBlend mode="normal" in2="effect1_backgroundBlur_250_359" result="effect2_dropShadow_250_359"/>
<feBlend mode="normal" in="SourceGraphic" in2="effect2_dropShadow_250_359" result="shape"/>
</filter>
<linearGradient id="paint0_linear_250_359" x1="-11.4916" y1="2.6883" x2="175.515" y2="197.38" gradientUnits="userSpaceOnUse">
<stop stop-color="white"/>
<stop offset="0.828876" stop-color="white" stop-opacity="0"/>
</linearGradient>
</defs>
</svg>
