<svg width="296" height="183" viewBox="0 0 296 183" fill="none" xmlns="http://www.w3.org/2000/svg">
<g filter="url(#filter0_bd_4_284)">
<path d="M76.6425 174.481C62.7225 174.481 50.3225 171.041 39.4425 164.161C28.5625 157.281 20.0025 147.361 13.7625 134.401C7.68247 121.281 4.64247 105.681 4.64247 87.6006C4.64247 69.5206 7.68247 54.0006 13.7625 41.0406C20.0025 27.9206 28.5625 17.9206 39.4425 11.0406C50.3225 4.16058 62.7225 0.720583 76.6425 0.720583C90.5625 0.720583 102.962 4.16058 113.842 11.0406C124.722 17.9206 133.202 27.9206 139.282 41.0406C145.522 54.0006 148.642 69.5206 148.642 87.6006C148.642 105.681 145.522 121.281 139.282 134.401C133.202 147.361 124.722 157.281 113.842 164.161C102.962 171.041 90.5625 174.481 76.6425 174.481ZM76.6425 141.601C86.8825 141.601 94.8825 137.201 100.642 128.401C106.562 119.601 109.522 106.001 109.522 87.6006C109.522 69.2006 106.562 55.6006 100.642 46.8006C94.8825 38.0006 86.8825 33.6006 76.6425 33.6006C66.5625 33.6006 58.5625 38.0006 52.6425 46.8006C46.8825 55.6006 44.0025 69.2006 44.0025 87.6006C44.0025 106.001 46.8825 119.601 52.6425 128.401C58.5625 137.201 66.5625 141.601 76.6425 141.601ZM291.647 139.921V171.601H164.687V146.401L229.487 85.2006C236.367 78.6406 241.007 73.0406 243.407 68.4006C245.807 63.6006 247.007 58.8806 247.007 54.2406C247.007 47.5206 244.687 42.4006 240.047 38.8806C235.567 35.2006 228.927 33.3606 220.127 33.3606C212.767 33.3606 206.127 34.8006 200.207 37.6806C194.287 40.4006 189.327 44.5606 185.327 50.1606L157.007 31.9206C163.567 22.1606 172.607 14.5606 184.127 9.12057C195.647 3.52058 208.847 0.720583 223.727 0.720583C236.207 0.720583 247.087 2.80058 256.367 6.96057C265.807 10.9606 273.087 16.7206 278.207 24.2406C283.487 31.6006 286.127 40.3206 286.127 50.4006C286.127 59.5206 284.207 68.0806 280.367 76.0806C276.527 84.0806 269.087 93.2006 258.047 103.441L219.407 139.921H291.647Z" fill="white" fill-opacity="0.1" shape-rendering="crispEdges"/>
<path d="M39.4425 164.161L39.7097 163.738L39.4425 164.161ZM13.7625 134.401L13.3088 134.611L13.312 134.617L13.7625 134.401ZM13.7625 41.0406L13.3109 40.8258L13.3098 40.8282L13.7625 41.0406ZM39.4425 11.0406L39.7097 11.4632L39.4425 11.0406ZM113.842 11.0406L113.575 11.4632L113.842 11.0406ZM139.282 41.0406L138.829 41.2508L138.832 41.2575L139.282 41.0406ZM139.282 134.401L138.831 134.186L138.83 134.188L139.282 134.401ZM113.842 164.161L113.575 163.738L113.842 164.161ZM100.642 128.401L100.228 128.121L100.224 128.127L100.642 128.401ZM100.642 46.8006L100.224 47.0744L100.228 47.0797L100.642 46.8006ZM52.6425 46.8006L52.2276 46.5215L52.2241 46.5267L52.6425 46.8006ZM52.6425 128.401L52.2241 128.674L52.2276 128.68L52.6425 128.401ZM76.6425 173.981C62.8091 173.981 50.5032 170.563 39.7097 163.738L39.1752 164.583C50.1417 171.518 62.6359 174.981 76.6425 174.981V173.981ZM39.7097 163.738C28.9179 156.914 20.4173 147.07 14.213 134.184L13.312 134.617C19.5877 147.652 28.207 157.647 39.1752 164.583L39.7097 163.738ZM14.2161 134.19C8.1733 121.151 5.14247 105.626 5.14247 87.6006H4.14247C4.14247 105.736 7.19164 121.411 13.3088 134.611L14.2161 134.19ZM5.14247 87.6006C5.14247 69.5753 8.17339 54.1314 14.2151 41.2529L13.3098 40.8282C7.19156 53.8698 4.14247 69.4659 4.14247 87.6006H5.14247ZM14.214 41.2553C20.4188 28.2094 28.9195 18.2864 39.7097 11.4632L39.1752 10.618C28.2055 17.5547 19.5861 27.6318 13.3109 40.8258L14.214 41.2553ZM39.7097 11.4632C50.5032 4.63786 62.8091 1.22058 76.6425 1.22058V0.220581C62.6359 0.220581 50.1417 3.6833 39.1752 10.618L39.7097 11.4632ZM76.6425 1.22058C90.4759 1.22058 102.782 4.63786 113.575 11.4632L114.11 10.618C103.143 3.6833 90.6491 0.220581 76.6425 0.220581V1.22058ZM113.575 11.4632C124.364 18.2856 132.784 28.2069 138.829 41.2508L139.736 40.8303C133.621 27.6342 125.081 17.5555 114.11 10.618L113.575 11.4632ZM138.832 41.2575C145.032 54.1347 148.142 69.5769 148.142 87.6006H149.142C149.142 69.4642 146.013 53.8664 139.733 40.8237L138.832 41.2575ZM148.142 87.6006C148.142 105.624 145.032 121.147 138.831 134.186L139.734 134.615C146.013 121.414 149.142 105.737 149.142 87.6006H148.142ZM138.83 134.188C132.786 147.072 124.366 156.915 113.575 163.738L114.11 164.583C125.079 157.647 133.619 147.649 139.735 134.613L138.83 134.188ZM113.575 163.738C102.782 170.563 90.4759 173.981 76.6425 173.981V174.981C90.6491 174.981 103.143 171.518 114.11 164.583L113.575 163.738ZM76.6425 142.101C87.0566 142.101 95.2115 137.611 101.061 128.674L100.224 128.127C94.5535 136.79 86.7084 141.101 76.6425 141.101V142.101ZM101.057 128.68C107.06 119.756 110.022 106.035 110.022 87.6006H109.022C109.022 105.966 106.065 119.445 100.228 128.121L101.057 128.68ZM110.022 87.6006C110.022 69.1657 107.06 55.4449 101.057 46.5215L100.228 47.0797C106.065 55.7563 109.022 69.2354 109.022 87.6006H110.022ZM101.061 46.5267C95.2115 37.5902 87.0566 33.1006 76.6425 33.1006V34.1006C86.7084 34.1006 94.5535 38.4109 100.224 47.0744L101.061 46.5267ZM76.6425 33.1006C66.3859 33.1006 58.2347 37.592 52.2276 46.5215L53.0573 47.0797C58.8902 38.4092 66.739 34.1006 76.6425 34.1006V33.1006ZM52.2241 46.5267C46.3842 55.4489 43.5025 69.1673 43.5025 87.6006H44.5025C44.5025 69.2338 47.3808 55.7523 53.0608 47.0744L52.2241 46.5267ZM43.5025 87.6006C43.5025 106.034 46.3842 119.752 52.2241 128.674L53.0608 128.127C47.3808 119.449 44.5025 105.967 44.5025 87.6006H43.5025ZM52.2276 128.68C58.2347 137.609 66.3859 142.101 76.6425 142.101V141.101C66.739 141.101 58.8902 136.792 53.0573 128.121L52.2276 128.68ZM291.647 139.921H292.147V139.421H291.647V139.921ZM291.647 171.601V172.101H292.147V171.601H291.647ZM164.687 171.601H164.187V172.101H164.687V171.601ZM164.687 146.401L164.344 146.037L164.187 146.185V146.401H164.687ZM229.487 85.2006L229.83 85.5641L229.832 85.5625L229.487 85.2006ZM243.407 68.4006L243.851 68.6303L243.854 68.6242L243.407 68.4006ZM240.047 38.8806L239.729 39.2669L239.737 39.2731L239.745 39.2789L240.047 38.8806ZM200.207 37.6806L200.416 38.135L200.426 38.1302L200.207 37.6806ZM185.327 50.1606L185.056 50.5809L185.457 50.839L185.734 50.4512L185.327 50.1606ZM157.007 31.9206L156.592 31.6417L156.307 32.0648L156.736 32.3409L157.007 31.9206ZM184.127 9.12057L184.34 9.57273L184.345 9.57026L184.127 9.12057ZM256.367 6.96058L256.162 7.41693L256.172 7.42095L256.367 6.96058ZM278.207 24.2406L277.793 24.5221L277.801 24.532L278.207 24.2406ZM280.367 76.0806L280.818 76.2969L280.367 76.0806ZM258.047 103.441L257.707 103.074L257.704 103.077L258.047 103.441ZM219.407 139.921L219.064 139.557L218.149 140.421H219.407V139.921ZM291.147 139.921V171.601H292.147V139.921H291.147ZM291.647 171.101H164.687V172.101H291.647V171.101ZM165.187 171.601V146.401H164.187V171.601H165.187ZM165.03 146.764L229.83 85.5641L229.144 84.8371L164.344 146.037L165.03 146.764ZM229.832 85.5625C236.725 78.9902 241.413 73.3445 243.851 68.6303L242.963 68.1709C240.601 72.7367 236.009 78.291 229.142 84.8387L229.832 85.5625ZM243.854 68.6242C246.283 63.7656 247.507 58.9695 247.507 54.2406H246.507C246.507 58.7916 245.33 63.4355 242.96 68.177L243.854 68.6242ZM247.507 54.2406C247.507 47.3915 245.134 42.1121 240.349 38.4822L239.745 39.2789C244.24 42.689 246.507 47.6497 246.507 54.2406H247.507ZM240.364 38.4942C235.759 34.7111 228.985 32.8606 220.127 32.8606V33.8606C228.868 33.8606 235.375 35.69 239.729 39.2669L240.364 38.4942ZM220.127 32.8606C212.7 32.8606 205.984 34.3141 199.988 37.231L200.426 38.1302C206.27 35.2871 212.834 33.8606 220.127 33.8606V32.8606ZM199.998 37.2262C193.994 39.9847 188.968 44.2032 184.92 49.87L185.734 50.4512C189.686 44.918 194.579 40.8165 200.416 38.1349L199.998 37.2262ZM185.598 49.7402L157.278 31.5002L156.736 32.3409L185.056 50.5809L185.598 49.7402ZM157.422 32.1995C163.927 22.5205 172.895 14.9775 184.34 9.5727L183.913 8.66845C172.319 14.1436 163.206 21.8006 156.592 31.6417L157.422 32.1995ZM184.345 9.57026C195.787 4.00833 208.91 1.22058 223.727 1.22058V0.220581C208.783 0.220581 195.507 3.03283 183.908 8.67089L184.345 9.57026ZM223.727 1.22058C236.152 1.22058 246.96 3.29144 256.162 7.41683L256.571 6.50432C247.214 2.30972 236.262 0.220581 223.727 0.220581V1.22058ZM256.172 7.42095C265.535 11.3884 272.734 17.0911 277.794 24.522L278.62 23.9592C273.439 16.35 266.079 10.5328 256.562 6.5002L256.172 7.42095ZM277.801 24.532C283.013 31.7976 285.627 40.4128 285.627 50.4006H286.627C286.627 40.2284 283.961 31.4036 278.613 23.9491L277.801 24.532ZM285.627 50.4006C285.627 59.4478 283.723 67.9336 279.916 75.8642L280.818 76.2969C284.691 68.2275 286.627 59.5933 286.627 50.4006H285.627ZM279.916 75.8642C276.116 83.7815 268.728 92.8511 257.707 103.074L258.387 103.807C269.445 93.55 276.938 84.3796 280.818 76.2969L279.916 75.8642ZM257.704 103.077L219.064 139.557L219.75 140.284L258.39 103.804L257.704 103.077ZM219.407 140.421H291.647V139.421H219.407V140.421Z" fill="url(#paint0_linear_4_284)"/>
</g>
<defs>
<filter id="filter0_bd_4_284" x="0.642471" y="-3.27954" width="295.004" height="185.76" filterUnits="userSpaceOnUse" color-interpolation-filters="sRGB">
<feFlood flood-opacity="0" result="BackgroundImageFix"/>
<feGaussianBlur in="BackgroundImage" stdDeviation="2"/>
<feComposite in2="SourceAlpha" operator="in" result="effect1_backgroundBlur_4_284"/>
<feColorMatrix in="SourceAlpha" type="matrix" values="0 0 0 0 0 0 0 0 0 0 0 0 0 0 0 0 0 0 127 0" result="hardAlpha"/>
<feOffset dy="4"/>
<feGaussianBlur stdDeviation="2"/>
<feComposite in2="hardAlpha" operator="out"/>
<feColorMatrix type="matrix" values="0 0 0 0 0 0 0 0 0 0 0 0 0 0 0 0 0 0 0.25 0"/>
<feBlend mode="normal" in2="effect1_backgroundBlur_4_284" result="effect2_dropShadow_4_284"/>
<feBlend mode="normal" in="SourceGraphic" in2="effect2_dropShadow_4_284" result="shape"/>
</filter>
<linearGradient id="paint0_linear_4_284" x1="-12.4491" y1="2.94563" x2="170.576" y2="229.22" gradientUnits="userSpaceOnUse">
<stop stop-color="white"/>
<stop offset="0.828876" stop-color="white" stop-opacity="0"/>
</linearGradient>
</defs>
</svg>
