<svg width="294" height="183" viewBox="0 0 294 183" fill="none" xmlns="http://www.w3.org/2000/svg">
<g filter="url(#filter0_bd_290_347)">
<path d="M76.3792 174.223C62.4592 174.223 50.0592 170.783 39.1792 163.903C28.2992 157.023 19.7392 147.103 13.4992 134.143C7.41917 121.023 4.37917 105.423 4.37917 87.3433C4.37917 69.2633 7.41917 53.7433 13.4992 40.7833C19.7392 27.6633 28.2992 17.6633 39.1792 10.7833C50.0592 3.90326 62.4592 0.463259 76.3792 0.463259C90.2992 0.463259 102.699 3.90326 113.579 10.7833C124.459 17.6633 132.939 27.6633 139.019 40.7833C145.259 53.7433 148.379 69.2633 148.379 87.3433C148.379 105.423 145.259 121.023 139.019 134.143C132.939 147.103 124.459 157.023 113.579 163.903C102.699 170.783 90.2992 174.223 76.3792 174.223ZM76.3792 141.343C86.6192 141.343 94.6192 136.943 100.379 128.143C106.299 119.343 109.259 105.743 109.259 87.3433C109.259 68.9433 106.299 55.3433 100.379 46.5433C94.6192 37.7433 86.6192 33.3433 76.3792 33.3433C66.2992 33.3433 58.2992 37.7433 52.3792 46.5433C46.6192 55.3433 43.7392 68.9433 43.7392 87.3433C43.7392 105.743 46.6192 119.343 52.3792 128.143C58.2992 136.943 66.2992 141.343 76.3792 141.343ZM243.406 71.7433C258.126 74.1433 269.406 79.6633 277.246 88.3033C285.086 96.7833 289.006 107.343 289.006 119.983C289.006 129.743 286.446 138.783 281.326 147.103C276.206 155.263 268.366 161.823 257.806 166.783C247.406 171.743 234.606 174.223 219.406 174.223C207.566 174.223 195.886 172.703 184.366 169.663C173.006 166.463 163.326 161.983 155.326 156.223L170.446 126.463C176.846 131.263 184.206 135.023 192.526 137.743C201.006 140.303 209.646 141.583 218.446 141.583C228.206 141.583 235.886 139.743 241.486 136.063C247.086 132.223 249.886 126.863 249.886 119.983C249.886 106.223 239.406 99.3433 218.446 99.3433H200.686V73.6633L235.246 34.5432H163.726V3.34325H281.326V28.5433L243.406 71.7433Z" fill="white" fill-opacity="0.1" shape-rendering="crispEdges"/>
<path d="M39.1792 163.903L39.4464 163.481L39.1792 163.903ZM13.4992 134.143L13.0455 134.354L13.0487 134.36L13.4992 134.143ZM13.4992 40.7833L13.0476 40.5685L13.0465 40.5709L13.4992 40.7833ZM39.1792 10.7833L39.4464 11.2059L39.1792 10.7833ZM113.579 10.7833L113.312 11.2059L113.579 10.7833ZM139.019 40.7833L138.565 40.9935L138.569 41.0002L139.019 40.7833ZM139.019 134.143L138.568 133.929L138.567 133.931L139.019 134.143ZM113.579 163.903L113.312 163.481L113.579 163.903ZM100.379 128.143L99.9643 127.864L99.9608 127.869L100.379 128.143ZM100.379 46.5433L99.9608 46.8171L99.9643 46.8223L100.379 46.5433ZM52.3792 46.5433L51.9643 46.2641L51.9608 46.2694L52.3792 46.5433ZM52.3792 128.143L51.9608 128.417L51.9643 128.422L52.3792 128.143ZM76.3792 173.723C62.5458 173.723 50.2399 170.306 39.4464 163.481L38.9119 164.326C49.8784 171.261 62.3726 174.723 76.3792 174.723V173.723ZM39.4464 163.481C28.6546 156.656 20.154 146.812 13.9497 133.926L13.0487 134.36C19.3244 147.394 27.9437 157.39 38.9119 164.326L39.4464 163.481ZM13.9528 133.933C7.91 120.893 4.87917 105.368 4.87917 87.3433H3.87917C3.87917 105.478 6.92834 121.153 13.0455 134.353L13.9528 133.933ZM4.87917 87.3433C4.87917 69.3179 7.91008 53.8741 13.9518 40.9956L13.0465 40.5709C6.92825 53.6124 3.87917 69.2086 3.87917 87.3433H4.87917ZM13.9507 40.998C20.1555 27.952 28.6562 18.0291 39.4464 11.2059L38.9119 10.3607C27.9422 17.2974 19.3228 27.3745 13.0476 40.5685L13.9507 40.998ZM39.4464 11.2059C50.2399 4.38054 62.5458 0.963257 76.3792 0.963257V-0.0367432C62.3726 -0.0367432 49.8784 3.42598 38.9119 10.3607L39.4464 11.2059ZM76.3792 0.963257C90.2126 0.963257 102.518 4.38054 113.312 11.2059L113.846 10.3607C102.88 3.42598 90.3858 -0.0367432 76.3792 -0.0367432V0.963257ZM113.312 11.2059C124.101 18.0283 132.521 27.9496 138.566 40.9935L139.473 40.573C133.358 27.3769 124.817 17.2982 113.846 10.3607L113.312 11.2059ZM138.569 41.0002C144.769 53.8774 147.879 69.3196 147.879 87.3433H148.879C148.879 69.2069 145.75 53.6091 139.47 40.5663L138.569 41.0002ZM147.879 87.3433C147.879 105.367 144.769 120.89 138.568 133.929L139.471 134.358C145.749 121.157 148.879 105.48 148.879 87.3433H147.879ZM138.567 133.931C132.522 146.815 124.102 156.657 113.312 163.481L113.846 164.326C124.816 157.389 133.356 147.392 139.472 134.356L138.567 133.931ZM113.312 163.481C102.518 170.306 90.2126 173.723 76.3792 173.723V174.723C90.3858 174.723 102.88 171.261 113.846 164.326L113.312 163.481ZM76.3792 141.843C86.7933 141.843 94.9482 137.354 100.798 128.417L99.9608 127.869C94.2902 136.533 86.4451 140.843 76.3792 140.843V141.843ZM100.794 128.422C106.797 119.499 109.759 105.778 109.759 87.3433H108.759C108.759 105.708 105.801 119.188 99.9643 127.864L100.794 128.422ZM109.759 87.3433C109.759 68.9084 106.797 55.1876 100.794 46.2642L99.9643 46.8223C105.801 55.4989 108.759 68.9781 108.759 87.3433H109.759ZM100.798 46.2694C94.9482 37.3329 86.7933 32.8432 76.3792 32.8432V33.8432C86.4451 33.8432 94.2902 38.1536 99.9608 46.8171L100.798 46.2694ZM76.3792 32.8432C66.1226 32.8432 57.9714 37.3347 51.9643 46.2642L52.794 46.8223C58.6269 38.1518 66.4757 33.8432 76.3792 33.8432V32.8432ZM51.9608 46.2694C46.1209 55.1916 43.2392 68.91 43.2392 87.3433H44.2392C44.2392 68.9765 47.1175 55.495 52.7975 46.8171L51.9608 46.2694ZM43.2392 87.3433C43.2392 105.777 46.1209 119.495 51.9608 128.417L52.7975 127.869C47.1175 119.192 44.2392 105.71 44.2392 87.3433H43.2392ZM51.9643 128.422C57.9714 137.352 66.1226 141.843 76.3792 141.843V140.843C66.4757 140.843 58.6269 136.535 52.794 127.864L51.9643 128.422ZM243.406 71.7433L243.03 71.4134L242.435 72.0915L243.326 72.2367L243.406 71.7433ZM277.246 88.3033L276.876 88.6393L276.879 88.6427L277.246 88.3033ZM281.326 147.103L281.75 147.369L281.752 147.365L281.326 147.103ZM257.806 166.783L257.593 166.331L257.591 166.332L257.806 166.783ZM184.366 169.663L184.23 170.145L184.238 170.147L184.366 169.663ZM155.326 156.223L154.88 155.997L154.686 156.379L155.034 156.629L155.326 156.223ZM170.446 126.463L170.746 126.063L170.27 125.706L170 126.237L170.446 126.463ZM192.526 137.743L192.371 138.219L192.382 138.222L192.526 137.743ZM241.486 136.063L241.761 136.481L241.769 136.476L241.486 136.063ZM200.686 99.3433H200.186V99.8433H200.686V99.3433ZM200.686 73.6633L200.311 73.3322L200.186 73.474V73.6633H200.686ZM235.246 34.5433L235.621 34.8743L236.355 34.0433H235.246V34.5433ZM163.726 34.5433H163.226V35.0433H163.726V34.5433ZM163.726 3.34325V2.84325H163.226V3.34325H163.726ZM281.326 3.34325H281.826V2.84325H281.326V3.34325ZM281.326 28.5433L281.702 28.8731L281.826 28.7316V28.5433H281.326ZM243.326 72.2367C257.965 74.6237 269.131 80.104 276.876 88.6393L277.616 87.9673C269.681 79.2226 258.287 73.6628 243.487 71.2498L243.326 72.2367ZM276.879 88.6427C284.625 97.0212 288.506 107.456 288.506 119.983H289.506C289.506 107.23 285.547 96.5453 277.613 87.9638L276.879 88.6427ZM288.506 119.983C288.506 129.651 285.972 138.6 280.9 146.841L281.752 147.365C286.92 138.967 289.506 129.836 289.506 119.983H288.506ZM280.903 146.838C275.843 154.901 268.085 161.403 257.593 166.331L258.019 167.236C268.647 162.244 276.569 155.626 281.75 147.369L280.903 146.838ZM257.591 166.332C247.276 171.251 234.554 173.723 219.406 173.723V174.723C234.658 174.723 247.536 172.235 258.021 167.235L257.591 166.332ZM219.406 173.723C207.609 173.723 195.972 172.209 184.494 169.18L184.238 170.147C195.8 173.198 207.523 174.723 219.406 174.723V173.723ZM184.502 169.182C173.187 165.995 163.562 161.537 155.618 155.817L155.034 156.629C163.09 162.429 172.825 166.932 184.23 170.145L184.502 169.182ZM155.772 156.45L170.892 126.69L170 126.237L154.88 155.997L155.772 156.45ZM170.146 126.863C176.594 131.699 184.004 135.483 192.371 138.219L192.681 137.268C184.409 134.563 177.098 130.827 170.746 126.063L170.146 126.863ZM192.382 138.222C200.908 140.796 209.597 142.083 218.446 142.083V141.083C209.695 141.083 201.104 139.811 192.671 137.265L192.382 138.222ZM218.446 142.083C228.261 142.083 236.05 140.234 241.761 136.481L241.211 135.645C235.722 139.253 228.151 141.083 218.446 141.083V142.083ZM241.769 136.476C247.507 132.541 250.386 127.025 250.386 119.983H249.386C249.386 126.701 246.665 131.906 241.203 135.651L241.769 136.476ZM250.386 119.983C250.386 112.954 247.697 107.628 242.3 104.085C236.941 100.567 228.965 98.8433 218.446 98.8433V99.8433C228.887 99.8433 236.631 101.56 241.752 104.921C246.835 108.259 249.386 113.252 249.386 119.983H250.386ZM218.446 98.8433H200.686V99.8433H218.446V98.8433ZM201.186 99.3433V73.6633H200.186V99.3433H201.186ZM201.061 73.9943L235.621 34.8743L234.871 34.2122L200.311 73.3322L201.061 73.9943ZM235.246 34.0433H163.726V35.0433H235.246V34.0433ZM164.226 34.5433V3.34325H163.226V34.5433H164.226ZM163.726 3.84325H281.326V2.84325H163.726V3.84325ZM280.826 3.34325V28.5433H281.826V3.34325H280.826ZM280.95 28.2134L243.03 71.4134L243.782 72.0731L281.702 28.8731L280.95 28.2134Z" fill="url(#paint0_linear_290_347)"/>
</g>
<defs>
<filter id="filter0_bd_290_347" x="0.37915" y="-3.53687" width="292.627" height="185.76" filterUnits="userSpaceOnUse" color-interpolation-filters="sRGB">
<feFlood flood-opacity="0" result="BackgroundImageFix"/>
<feGaussianBlur in="BackgroundImage" stdDeviation="2"/>
<feComposite in2="SourceAlpha" operator="in" result="effect1_backgroundBlur_290_347"/>
<feColorMatrix in="SourceAlpha" type="matrix" values="0 0 0 0 0 0 0 0 0 0 0 0 0 0 0 0 0 0 127 0" result="hardAlpha"/>
<feOffset dy="4"/>
<feGaussianBlur stdDeviation="2"/>
<feComposite in2="hardAlpha" operator="out"/>
<feColorMatrix type="matrix" values="0 0 0 0 0 0 0 0 0 0 0 0 0 0 0 0 0 0 0.25 0"/>
<feBlend mode="normal" in2="effect1_backgroundBlur_290_347" result="effect2_dropShadow_290_347"/>
<feBlend mode="normal" in="SourceGraphic" in2="effect2_dropShadow_290_347" result="shape"/>
</filter>
<linearGradient id="paint0_linear_290_347" x1="-12.687" y1="2.6883" x2="170.463" y2="228.372" gradientUnits="userSpaceOnUse">
<stop stop-color="white"/>
<stop offset="0.828876" stop-color="white" stop-opacity="0"/>
</linearGradient>
</defs>
</svg>
