<svg width="86" height="187" viewBox="0 0 86 187" fill="none" xmlns="http://www.w3.org/2000/svg">
<g filter="url(#filter0_bd_11_338)">
<path d="M3.99988 45C3.99988 20.1472 24.1471 0 48.9999 0H87.9999V179H48.9999C24.1471 179 3.99988 158.853 3.99988 134V45Z" fill="white" fill-opacity="0.1" shape-rendering="crispEdges"/>
<path fill-rule="evenodd" clip-rule="evenodd" d="M37.7269 50.5246C36.225 49.4518 36.1347 47.2519 37.5437 46.0597L39.797 44.1531C40.4506 43.6001 41.3837 43.5244 42.1179 43.9649L44.5659 45.4337C44.7585 45.3159 44.9885 45.1564 45.2507 44.9523C45.7184 44.5883 46.2375 44.1232 46.7562 43.6046C47.6296 42.7312 48.4543 41.7534 49.0116 40.9117L47.5714 38.5114C47.1309 37.7772 47.2066 36.8441 47.7596 36.1905L49.7582 33.8284C50.9038 32.4747 53.0175 32.5614 54.0483 34.0045C55.6379 36.2298 56.0159 39.2208 54.5203 41.6712C53.4893 43.3605 52.0337 45.4306 50.1819 47.2825C48.465 48.9993 46.6852 50.2512 45.2047 51.1243C42.7659 52.5625 39.8724 52.0571 37.7269 50.5246ZM38.8356 47.5865C38.422 47.9365 38.4485 48.5822 38.8893 48.8971C40.5573 50.0885 42.5908 50.3439 44.1888 49.4015C45.5561 48.5952 47.1937 47.4422 48.7676 45.8682C50.472 44.1639 51.8336 42.2342 52.8131 40.6293C53.8224 38.9756 53.626 36.8542 52.4208 35.1669C52.1479 34.7849 51.5883 34.7619 51.285 35.1203L49.2864 37.4824L51.0393 40.404C51.2249 40.7133 51.2296 41.0986 51.0514 41.4123C50.3994 42.5606 49.2864 43.9028 48.1704 45.0188C47.6069 45.5823 47.0257 46.1052 46.4791 46.5306C45.9477 46.9442 45.3929 47.3102 44.8884 47.507C44.6001 47.6195 44.2759 47.5921 44.0105 47.4328L41.0889 45.6799L38.8356 47.5865Z" fill="white"/>
<path d="M53.2399 140.406C53.2399 141.832 52.9332 143.126 52.3199 144.286C51.6932 145.432 50.8332 146.339 49.7399 147.006C48.6332 147.659 47.3865 147.986 45.9999 147.986C44.6132 147.986 43.3732 147.659 42.2799 147.006C41.1732 146.339 40.3132 145.432 39.6999 144.286C39.0732 143.126 38.7599 141.826 38.7599 140.386C38.7599 139.172 38.9732 138.079 39.3999 137.106C39.8265 136.119 40.4399 135.292 41.2399 134.626L43.1599 136.706C42.0665 137.652 41.5199 138.826 41.5199 140.226C41.5199 141.092 41.7132 141.866 42.0999 142.546C42.4732 143.226 42.9999 143.759 43.6799 144.146C44.3599 144.519 45.1332 144.706 45.9999 144.706C46.8665 144.706 47.6399 144.519 48.3199 144.146C48.9999 143.759 49.5332 143.226 49.9199 142.546C50.2932 141.866 50.4799 141.092 50.4799 140.226C50.4799 138.826 49.9265 137.652 48.8199 136.706L50.7399 134.626C51.5532 135.292 52.1732 136.119 52.5999 137.106C53.0265 138.092 53.2399 139.192 53.2399 140.406ZM42.0799 128.396C42.0799 126.729 42.4799 125.449 43.2799 124.556C44.0665 123.662 45.2599 123.216 46.8599 123.216L52.9999 123.216L52.9999 126.136L51.6599 126.136C52.6599 126.722 53.1599 127.816 53.1599 129.416C53.1599 130.242 53.0199 130.962 52.7399 131.576C52.4599 132.176 52.0732 132.636 51.5799 132.956C51.0865 133.276 50.5265 133.436 49.8999 133.436C48.8999 133.436 48.1132 133.062 47.5399 132.316C46.9665 131.556 46.6799 130.389 46.6799 128.816L46.6799 126.336C45.9999 126.336 45.4799 126.542 45.1199 126.956C44.7465 127.369 44.5599 127.989 44.5599 128.816C44.5599 129.389 44.6532 129.956 44.8399 130.516C45.0132 131.062 45.2532 131.529 45.5599 131.916L43.3799 133.036C42.9665 132.449 42.6465 131.749 42.4199 130.936C42.1932 130.109 42.0799 129.262 42.0799 128.396ZM51.0599 128.636C51.0599 128.102 50.9399 127.629 50.6999 127.216C50.4465 126.802 50.0799 126.509 49.5999 126.336L48.4999 126.336L48.4999 128.476C48.4999 129.756 48.9199 130.396 49.7599 130.396C50.1599 130.396 50.4799 130.242 50.7199 129.936C50.9465 129.616 51.0599 129.182 51.0599 128.636ZM38.1599 120.392L38.1599 117.272L52.9999 117.272L52.9999 120.392L38.1599 120.392ZM38.1599 114.376L38.1599 111.256L52.9999 111.256L52.9999 114.376L38.1599 114.376ZM42.2399 91.8567L52.9999 91.8567L52.9999 94.8167L51.7199 94.8167C52.1865 95.2301 52.5465 95.7234 52.7999 96.2967C53.0399 96.8701 53.1599 97.4901 53.1599 98.1567C53.1599 99.5701 52.7532 100.69 51.9399 101.517C51.1265 102.343 49.9199 102.757 48.3199 102.757L42.2399 102.757L42.2399 99.6367L47.8599 99.6367C49.5932 99.6367 50.4599 98.9101 50.4599 97.4567C50.4599 96.7101 50.2199 96.1101 49.7399 95.6567C49.2465 95.2034 48.5199 94.9767 47.5599 94.9767L42.2399 94.9767L42.2399 91.8567ZM53.1599 85.3462C53.1599 86.2396 53.0532 87.1129 52.8399 87.9662C52.6132 88.8196 52.3332 89.4996 51.9999 90.0062L49.7599 88.9662C50.0665 88.4862 50.3199 87.9062 50.5199 87.2262C50.7065 86.5462 50.7999 85.8796 50.7999 85.2262C50.7999 83.9062 50.4732 83.2462 49.8199 83.2462C49.5132 83.2462 49.2932 83.4262 49.1599 83.7862C49.0265 84.1462 48.9132 84.6996 48.8199 85.4462C48.6865 86.3262 48.5332 87.0529 48.3599 87.6262C48.1865 88.1996 47.8799 88.6996 47.4399 89.1262C46.9999 89.5396 46.3732 89.7462 45.5599 89.7462C44.8799 89.7462 44.2799 89.5529 43.7599 89.1662C43.2265 88.7662 42.8132 88.1929 42.5199 87.4462C42.2265 86.6862 42.0799 85.7929 42.0799 84.7662C42.0799 84.0062 42.1665 83.2529 42.3399 82.5062C42.4999 81.7462 42.7265 81.1196 43.0199 80.6262L45.2399 81.6662C44.7065 82.6129 44.4399 83.6462 44.4399 84.7662C44.4399 85.4329 44.5332 85.9329 44.7199 86.2662C44.9065 86.5996 45.1465 86.7662 45.4399 86.7662C45.7732 86.7662 46.0065 86.5862 46.1399 86.2262C46.2732 85.8662 46.3999 85.2929 46.5199 84.5062C46.6665 83.6262 46.8265 82.9062 46.9999 82.3462C47.1599 81.7862 47.4599 81.2996 47.8999 80.8862C48.3399 80.4729 48.9532 80.2662 49.7399 80.2662C50.4065 80.2662 50.9999 80.4662 51.5199 80.8662C52.0399 81.2662 52.4465 81.8529 52.7399 82.6262C53.0199 83.3862 53.1599 84.2929 53.1599 85.3462ZM38.9999 78.7412L38.9999 75.0212L48.1399 75.6412L48.1399 78.1212L38.9999 78.7412ZM53.1599 76.8812C53.1599 77.4279 52.9865 77.8879 52.6399 78.2612C52.2799 78.6212 51.8465 78.8012 51.3399 78.8012C50.8332 78.8012 50.4132 78.6212 50.0799 78.2612C49.7332 77.9012 49.5599 77.4412 49.5599 76.8812C49.5599 76.3212 49.7332 75.8612 50.0799 75.5012C50.4132 75.1412 50.8332 74.9612 51.3399 74.9612C51.8465 74.9612 52.2799 75.1479 52.6399 75.5212C52.9865 75.8812 53.1599 76.3346 53.1599 76.8812Z" fill="white"/>
<path d="M4.49988 45C4.49988 20.4233 24.4232 0.5 48.9999 0.5H87.4999V178.5H48.9999C24.4232 178.5 4.49988 158.577 4.49988 134V45Z" stroke="url(#paint0_linear_11_338)" shape-rendering="crispEdges"/>
</g>
<defs>
<filter id="filter0_bd_11_338" x="-1.00012" y="-5" width="94" height="192" filterUnits="userSpaceOnUse" color-interpolation-filters="sRGB">
<feFlood flood-opacity="0" result="BackgroundImageFix"/>
<feGaussianBlur in="BackgroundImage" stdDeviation="2.5"/>
<feComposite in2="SourceAlpha" operator="in" result="effect1_backgroundBlur_11_338"/>
<feColorMatrix in="SourceAlpha" type="matrix" values="0 0 0 0 0 0 0 0 0 0 0 0 0 0 0 0 0 0 127 0" result="hardAlpha"/>
<feOffset dy="4"/>
<feGaussianBlur stdDeviation="2"/>
<feComposite in2="hardAlpha" operator="out"/>
<feColorMatrix type="matrix" values="0 0 0 0 0 0 0 0 0 0 0 0 0 0 0 0 0 0 0.25 0"/>
<feBlend mode="normal" in2="effect1_backgroundBlur_11_338" result="effect2_dropShadow_11_338"/>
<feBlend mode="normal" in="SourceGraphic" in2="effect2_dropShadow_11_338" result="shape"/>
</filter>
<linearGradient id="paint0_linear_11_338" x1="29.2286" y1="8.14264" x2="92.8085" y2="11.0115" gradientUnits="userSpaceOnUse">
<stop stop-color="white"/>
<stop offset="1" stop-color="white" stop-opacity="0"/>
</linearGradient>
</defs>
</svg>
