<svg width="62" height="146" viewBox="0 0 62 146" fill="none" xmlns="http://www.w3.org/2000/svg">
<path fill-rule="evenodd" clip-rule="evenodd" d="M47.7945 19.8106V41.4085C47.7945 50.741 40.229 58.3065 30.8964 58.3065C21.5639 58.3065 13.9984 50.741 13.9984 41.4085V19.8106C13.9984 11.1979 20.4419 4.09016 28.7712 3.04496V23.3465H33.0217L33.0217 3.04496C41.351 4.09016 47.7945 11.1979 47.7945 19.8106ZM11.9984 19.8106C11.9984 9.37351 20.4594 0.912598 30.8964 0.912598C41.3335 0.912598 49.7945 9.37353 49.7945 19.8106V41.4085C49.7945 51.8456 41.3335 60.3065 30.8964 60.3065C20.4594 60.3065 11.9984 51.8455 11.9984 41.4085V19.8106Z" fill="white"/>
<path d="M5.06664 81.1644C4.27664 81.1644 3.51164 81.0444 2.77164 80.8044C2.04164 80.5544 1.46664 80.2344 1.04664 79.8444L1.60164 78.6744C2.00164 79.0344 2.51164 79.3294 3.13164 79.5594C3.76164 79.7794 4.40664 79.8894 5.06664 79.8894C5.93664 79.8894 6.58664 79.7444 7.01664 79.4544C7.44664 79.1544 7.66164 78.7594 7.66164 78.2694C7.66164 77.9094 7.54164 77.6194 7.30164 77.3994C7.07164 77.1694 6.78164 76.9944 6.43164 76.8744C6.09164 76.7544 5.60664 76.6194 4.97664 76.4694C4.18664 76.2794 3.54664 76.0894 3.05664 75.8994C2.57664 75.7094 2.16164 75.4194 1.81164 75.0294C1.47164 74.6294 1.30164 74.0944 1.30164 73.4244C1.30164 72.8644 1.44664 72.3594 1.73664 71.9094C2.03664 71.4594 2.48664 71.0994 3.08664 70.8294C3.68664 70.5594 4.43164 70.4244 5.32164 70.4244C5.94164 70.4244 6.55164 70.5044 7.15164 70.6644C7.75164 70.8244 8.26664 71.0544 8.69664 71.3544L8.20164 72.5544C7.76164 72.2744 7.29164 72.0644 6.79164 71.9244C6.29164 71.7744 5.80164 71.6994 5.32164 71.6994C4.47164 71.6994 3.83164 71.8544 3.40164 72.1644C2.98164 72.4744 2.77164 72.8744 2.77164 73.3644C2.77164 73.7244 2.89164 74.0194 3.13164 74.2494C3.37164 74.4694 3.66664 74.6444 4.01664 74.7744C4.37664 74.8944 4.86164 75.0244 5.47164 75.1644C6.26164 75.3544 6.89664 75.5444 7.37664 75.7344C7.85664 75.9244 8.26664 76.2144 8.60664 76.6044C8.95664 76.9944 9.13164 77.5194 9.13164 78.1794C9.13164 78.7294 8.98164 79.2344 8.68164 79.6944C8.38164 80.1444 7.92664 80.5044 7.31664 80.7744C6.70664 81.0344 5.95664 81.1644 5.06664 81.1644ZM16.018 81.1644C14.968 81.1644 14.018 80.9344 13.168 80.4744C12.328 80.0044 11.668 79.3644 11.188 78.5544C10.708 77.7344 10.468 76.8144 10.468 75.7944C10.468 74.7744 10.708 73.8594 11.188 73.0494C11.668 72.2294 12.333 71.5894 13.183 71.1294C14.033 70.6594 14.983 70.4244 16.033 70.4244C16.853 70.4244 17.603 70.5644 18.283 70.8444C18.963 71.1144 19.543 71.5194 20.023 72.0594L19.048 73.0044C18.258 72.1744 17.273 71.7594 16.093 71.7594C15.313 71.7594 14.608 71.9344 13.978 72.2844C13.348 72.6344 12.853 73.1194 12.493 73.7394C12.143 74.3494 11.968 75.0344 11.968 75.7944C11.968 76.5544 12.143 77.2444 12.493 77.8644C12.853 78.4744 13.348 78.9544 13.978 79.3044C14.608 79.6544 15.313 79.8294 16.093 79.8294C17.263 79.8294 18.248 79.4094 19.048 78.5694L20.023 79.5144C19.543 80.0544 18.958 80.4644 18.268 80.7444C17.588 81.0244 16.838 81.1644 16.018 81.1644ZM29.1829 81.0444L26.9179 77.8194C26.6379 77.8394 26.4179 77.8494 26.2579 77.8494H23.6629V81.0444H22.1629V70.5444H26.2579C27.6179 70.5444 28.6879 70.8694 29.4679 71.5194C30.2479 72.1694 30.6379 73.0644 30.6379 74.2044C30.6379 75.0144 30.4379 75.7044 30.0379 76.2744C29.6379 76.8444 29.0679 77.2594 28.3279 77.5194L30.8179 81.0444H29.1829ZM26.2129 76.5744C27.1629 76.5744 27.8879 76.3694 28.3879 75.9594C28.8879 75.5494 29.1379 74.9644 29.1379 74.2044C29.1379 73.4444 28.8879 72.8644 28.3879 72.4644C27.8879 72.0544 27.1629 71.8494 26.2129 71.8494H23.6629V76.5744H26.2129ZM37.8013 81.1644C36.7413 81.1644 35.7863 80.9344 34.9363 80.4744C34.0863 80.0044 33.4163 79.3594 32.9263 78.5394C32.4463 77.7194 32.2063 76.8044 32.2063 75.7944C32.2063 74.7844 32.4463 73.8694 32.9263 73.0494C33.4163 72.2294 34.0863 71.5894 34.9363 71.1294C35.7863 70.6594 36.7413 70.4244 37.8013 70.4244C38.8513 70.4244 39.8013 70.6594 40.6513 71.1294C41.5013 71.5894 42.1663 72.2294 42.6463 73.0494C43.1263 73.8594 43.3663 74.7744 43.3663 75.7944C43.3663 76.8144 43.1263 77.7344 42.6463 78.5544C42.1663 79.3644 41.5013 80.0044 40.6513 80.4744C39.8013 80.9344 38.8513 81.1644 37.8013 81.1644ZM37.8013 79.8294C38.5713 79.8294 39.2613 79.6544 39.8713 79.3044C40.4913 78.9544 40.9763 78.4744 41.3263 77.8644C41.6863 77.2444 41.8663 76.5544 41.8663 75.7944C41.8663 75.0344 41.6863 74.3494 41.3263 73.7394C40.9763 73.1194 40.4913 72.6344 39.8713 72.2844C39.2613 71.9344 38.5713 71.7594 37.8013 71.7594C37.0313 71.7594 36.3313 71.9344 35.7013 72.2844C35.0813 72.6344 34.5913 73.1194 34.2313 73.7394C33.8813 74.3494 33.7063 75.0344 33.7063 75.7944C33.7063 76.5544 33.8813 77.2444 34.2313 77.8644C34.5913 78.4744 35.0813 78.9544 35.7013 79.3044C36.3313 79.6544 37.0313 79.8294 37.8013 79.8294ZM45.659 70.5444H47.159V79.7394H52.844V81.0444H45.659V70.5444ZM54.5652 70.5444H56.0652V79.7394H61.7502V81.0444H54.5652V70.5444Z" fill="white"/>
<path d="M30.5429 142.26C30.7382 142.455 31.0548 142.455 31.25 142.26L34.432 139.078C34.6273 138.883 34.6273 138.566 34.432 138.371C34.2368 138.175 33.9202 138.175 33.7249 138.371L30.8965 141.199L28.0681 138.371C27.8728 138.175 27.5562 138.175 27.361 138.371C27.1657 138.566 27.1657 138.883 27.361 139.078L30.5429 142.26ZM31.3965 141.906L31.3965 92.8871L30.3965 92.8871L30.3965 141.906L31.3965 141.906Z" fill="white"/>
</svg>
